<svg xmlns="http://www.w3.org/2000/svg" width="980" height="610" viewBox="0 0 980 610"><rect width="980" height="610" rx="24" fill="#f8fafc"/><rect x="0" y="0" width="980" height="92" rx="24" fill="#111827"/><text x="42" y="45" font-family="Arial,Helvetica,sans-serif" font-size="25px" font-weight="700" fill="#1f2937">BDIX-IPTV • PROJECT DASHBOARD</text><text x="42" y="70" font-family="Arial,Helvetica,sans-serif" font-size="13px" font-weight="400" fill="#1f2937">EPG • Metadata • Logos • Playlist Audit</text><rect x="34" y="120" width="210" height="112" rx="18" fill="white" stroke="#e5e7eb"/><text x="52" y="154" font-family="Arial,Helvetica,sans-serif" font-size="14px" font-weight="400" fill="#1f2937">Streams</text><text x="52" y="198" font-family="Arial,Helvetica,sans-serif" font-size="28px" font-weight="700" fill="#1f2937">898</text><rect x="268" y="120" width="210" height="112" rx="18" fill="white" stroke="#e5e7eb"/><text x="286" y="154" font-family="Arial,Helvetica,sans-serif" font-size="14px" font-weight="400" fill="#1f2937">Channels</text><text x="286" y="198" font-family="Arial,Helvetica,sans-serif" font-size="28px" font-weight="700" fill="#1f2937">620</text><rect x="502" y="120" width="210" height="112" rx="18" fill="white" stroke="#e5e7eb"/><text x="520" y="154" font-family="Arial,Helvetica,sans-serif" font-size="14px" font-weight="400" fill="#1f2937">Bangladesh</text><text x="520" y="198" font-family="Arial,Helvetica,sans-serif" font-size="28px" font-weight="700" fill="#1f2937">54</text><rect x="736" y="120" width="210" height="112" rx="18" fill="white" stroke="#e5e7eb"/><text x="754" y="154" font-family="Arial,Helvetica,sans-serif" font-size="14px" font-weight="400" fill="#1f2937">India</text><text x="754" y="198" font-family="Arial,Helvetica,sans-serif" font-size="28px" font-weight="700" fill="#1f2937">224</text><rect x="34" y="260" width="210" height="112" rx="18" fill="white" stroke="#e5e7eb"/><text x="52" y="294" font-family="Arial,Helvetica,sans-serif" font-size="14px" font-weight="400" fill="#1f2937">Backup Streams</text><text x="52" y="338" font-family="Arial,Helvetica,sans-serif" font-size="28px" font-weight="700" fill="#1f2937">327</text><rect x="268" y="260" width="210" height="112" rx="18" fill="white" stroke="#e5e7eb"/><text x="286" y="294" font-family="Arial,Helvetica,sans-serif" font-size="14px" font-weight="400" fill="#1f2937">Local Logos</text><text x="286" y="338" font-family="Arial,Helvetica,sans-serif" font-size="28px" font-weight="700" fill="#1f2937">99.9%</text><rect x="502" y="260" width="210" height="112" rx="18" fill="white" stroke="#e5e7eb"/><text x="520" y="294" font-family="Arial,Helvetica,sans-serif" font-size="14px" font-weight="400" fill="#1f2937">EPG Coverage</text><text x="520" y="338" font-family="Arial,Helvetica,sans-serif" font-size="28px" font-weight="700" fill="#1f2937">60%</text><rect x="736" y="260" width="210" height="112" rx="18" fill="white" stroke="#e5e7eb"/><text x="754" y="294" font-family="Arial,Helvetica,sans-serif" font-size="14px" font-weight="400" fill="#1f2937">Audit Issues</text><text x="754" y="338" font-family="Arial,Helvetica,sans-serif" font-size="28px" font-weight="700" fill="#1f2937">40</text><rect x="34" y="400" width="912" height="170" rx="18" fill="white" stroke="#e5e7eb"/><text x="58" y="435" font-family="Arial,Helvetica,sans-serif" font-size="18px" font-weight="700" fill="#1f2937">Current quality status</text><text x="58" y="468" font-family="Arial,Helvetica,sans-serif" font-size="15px" font-weight="400" fill="#1f2937">EPG unmapped: 80</text><text x="58" y="496" font-family="Arial,Helvetica,sans-serif" font-size="15px" font-weight="400" fill="#1f2937">Metadata conflicts / audit issues: 40</text><text x="58" y="524" font-family="Arial,Helvetica,sans-serif" font-size="13px" font-weight="400" fill="#1f2937">Generated: 2026-09-30 07:04 UTC</text></svg>